# xmcd
#
# Track frame offsets: 
#        150
#        21379
#        30602
#        48409
#        64915
#        81355
#        98939
#        120087
#        135425
#        159692
#        183468
#        200859
#        219042
#        239270
#        258420
#        280012
#        291958
#
# Disc length: 4214 seconds
#
# Revision: 4
# Processed by: cddbd v1.5.2PL0 Copyright (c) Steve Scherf et al.
# Submitted via: ExactAudioCopy v0.99pb3
#
DISCID=f5107411
DTITLE=Various Artist - The Greatest Love Songs ever 2
DYEAR=2002
DGENRE=Dance
TTITLE0=Santana - Samba Pa Ti
TTITLE1=Bill Withers - Ain't No Sunshine
TTITLE2=Marvin Gaye - Sexual Healing
TTITLE3=The Righteous Brothers - You've Lost That Lovin Feelin
TTITLE4=The Emotions - Best Of My Love
TTITLE5=Macy Gray - I Try - Macy Cray
TTITLE6=Boston - More Than A Feeling
TTITLE7=Harold Melvin and The Blue Notes - If You Don't Know Me By Now
TTITLE8=Meat Loaf - Two Out Of Three Ain't Bad
TTITLE9=Sophie B. Hawkins - Damn. I Wish I Was Your Lover
TTITLE10=Nazareth - Love Hurts
TTITLE11=Billy Paul - Me And Mrs Jones
TTITLE12=Europe - Carrie
TTITLE13=Champaign - How Bout Us
TTITLE14=Reo Speedwagon - Can't Fight This Feeling
TTITLE15=Tammy Wynette - Stand By Your Man
TTITLE16=Julee Cruise - Falling
EXTD=Cd 2 of 2\n(C) Columbia - Sony Music Entertainment
EXTT0=
EXTT1=
EXTT2=
EXTT3=
EXTT4=
EXTT5=
EXTT6=
EXTT7=
EXTT8=
EXTT9=
EXTT10=
EXTT11=
EXTT12=
EXTT13=
EXTT14=
EXTT15=
EXTT16=
PLAYORDER=
